<?xml version="1.0" encoding="UTF-8"?>
<svg width="200" height="200" viewBox="0 0 200 200" fill="none" xmlns="http://www.w3.org/2000/svg">
  <defs>
    <linearGradient id="gradthomas" x1="0%" y1="0%" x2="100%" y2="100%">
      <stop offset="0%" style="stop-color:#C8A97E;stop-opacity:0.1" />
      <stop offset="100%" style="stop-color:#C8A97E;stop-opacity:0.05" />
    </linearGradient>
  </defs>
  
  <!-- Background -->
  <circle cx="100" cy="100" r="100" fill="url(#gradthomas)"/>
  
  <!-- Face shape -->
  <path d="M100 160c-22 0-40-25-40-45s18-45 40-45 40 25 40 45-18 45-40 45z" 
        fill="#F4C3A8"/>
  
  <!-- Hair (shorter) -->
  
    <path d="M60 115c0-30 18-45 40-45s40 15 40 45c0-25-18-45-40-45s-40 20-40 45z" 
          fill="#2C1810"/>
  
  
  <!-- Eyes -->
  <circle cx="85" cy="100" r="3" fill="#2C1810"/>
  <circle cx="115" cy="100" r="3" fill="#2C1810"/>
  
  <!-- Eyebrows -->
  <path d="M80 95q10-5 15 0M110 95q10-5 15 0" stroke="#2C1810" stroke-width="1.5"/>
  
  <!-- Nose -->
  <path d="M97 105q3 5 6 0" stroke="#2C1810" stroke-width="1"/>
  
  <!-- Mouth -->
  <path d="M90 120q10 5 20 0" stroke="#2C1810" stroke-width="1.5" fill="none"/>
</svg>